# xmcd
#
# Track frame offsets:
#	150
#	18485
#	41276
#	62343
#	83301
#	105682
#	120796
#	146714
#	168855
#	191812
#	209224
#	230475
#	252315
#	273376
#	294694
#	307001
#
# Disc length: 4320
#
# Revision: 1
# Processed by: cddbd v1.5.1PL0 Copyright (c) Steve Scherf et al.
# Submitted via: Grip 2.96
# Normalized: r0:TDELIM( - )
#
DISCID=df10de10
DTITLE=Thomas Schumacher - Sci-Fi Level 2.2
DYEAR=1900
DGENRE=
TTITLE0=Southhampton Ltd - Up That Hill
TTITLE1=Ricardo Villalopos - H.e.i.k.e. (original mix)
TTITLE2=Clemens Neufeld - Depth Surgery
TTITLE3=Johannes Heil - PAX Pt 3
TTITLE4=Luke Slater - Love (album edit)
TTITLE5=Takkyu Ishino - Taxi Funk
TTITLE6=Funk D'Void - Lucky Strike (envoy mix)
TTITLE7=Elektrochemie LK - Party Glances
TTITLE8=Dan Jones - Pharao
TTITLE9=Web 01 - Into Battle
TTITLE10=Joey Beltram - Floaters
TTITLE11=Jay Denham - Rise Up
TTITLE12=Tranquil Elephantizer - Zombie Dawn (sterac remix)
TTITLE13=Joel Mull - Inside 1 {b1}
TTITLE14=SW 37 - SW 37 A
TTITLE15=Christian Morgenstern - Miscellaneous prt 16
EXTD=
EXTT0=
EXTT1=
EXTT2=
EXTT3=
EXTT4=
EXTT5=
EXTT6=
EXTT7=
EXTT8=
EXTT9=
EXTT10=
EXTT11=
EXTT12=
EXTT13=
EXTT14=
EXTT15=
PLAYORDER=
